<?xml version="1.0" encoding="UTF-8" standalone="no"?>
<svg width="1342.71" height="1342.71" viewBox="0 0 1342.71 1342.71" version="1.1" xml:space="preserve" style="clip-rule:evenodd;fill-rule:evenodd;stroke-linejoin:round;stroke-miterlimit:1.41421" id="svg43" sodipodi:docname="ferris.svg" inkscape:version="1.3.2 (091e20ef0f, 2023-11-25)" xmlns:inkscape="http://www.inkscape.org/namespaces/inkscape" xmlns:sodipodi="http://sodipodi.sourceforge.net/DTD/sodipodi-0.dtd" xmlns="http://www.w3.org/2000/svg" xmlns:svg="http://www.w3.org/2000/svg"><defs id="defs47"><linearGradient id="_Linear1" x1="0" y1="0" x2="1" y2="0" gradientUnits="userSpaceOnUse" gradientTransform="matrix(1,0,0,-1,0,-6.50515e-4)"><stop offset="0" style="stop-color:rgb(247,76,0);stop-opacity:1" id="stop325" /><stop offset="0.33" style="stop-color:rgb(247,76,0);stop-opacity:1" id="stop327" /><stop offset="1" style="stop-color:rgb(244,150,0);stop-opacity:1" id="stop329" /></linearGradient><linearGradient id="_Linear2" x1="0" y1="0" x2="1" y2="0" gradientUnits="userSpaceOnUse" gradientTransform="matrix(1,0,0,-1,3.97109,-2.48627)"><stop offset="0" style="stop-color:rgb(204,58,0);stop-opacity:1" id="stop332" /><stop offset="0.15" style="stop-color:rgb(204,58,0);stop-opacity:1" id="stop334" /><stop offset="0.74" style="stop-color:rgb(247,76,0);stop-opacity:1" id="stop336" /><stop offset="1" style="stop-color:rgb(247,76,0);stop-opacity:1" id="stop338" /></linearGradient><linearGradient id="_Linear3" x1="0" y1="0" x2="1" y2="0" gradientUnits="userSpaceOnUse" gradientTransform="scale(1,-1)"><stop offset="0" style="stop-color:rgb(204,58,0);stop-opacity:1" id="stop341" /><stop offset="0.15" style="stop-color:rgb(204,58,0);stop-opacity:1" id="stop343" /><stop offset="0.74" style="stop-color:rgb(247,76,0);stop-opacity:1" id="stop345" /><stop offset="1" style="stop-color:rgb(247,76,0);stop-opacity:1" id="stop347" /></linearGradient>
        
        
        
        
        
        
        
        
        
        
        
        
    
	
	
	
	
	
	
	
	
	
	
	
	
	
	
	
	
	
	
	
	
	
	
	
</defs><sodipodi:namedview id="namedview45" pagecolor="#ffffff" bordercolor="#000000" borderopacity="0.25" inkscape:showpageshadow="2" inkscape:pageopacity="0.0" inkscape:pagecheckerboard="0" inkscape:deskcolor="#d1d1d1" showgrid="false" inkscape:zoom="0.199905" inkscape:cx="-362.672" inkscape:cy="1238.09" inkscape:window-width="2560" inkscape:window-height="1371" inkscape:window-x="0" inkscape:window-y="0" inkscape:window-maximized="1" inkscape:current-layer="svg43" />
    
<g id="g1" transform="translate(0,115.962)"><g id="g7143" transform="translate(-57.9946,16.5842)" style="stroke:black;stroke-width:0.05;stroke-dasharray:none;stroke-opacity:1"><path style="fill:#f49400;fill-opacity:1;stroke:black;stroke-width:0.05;stroke-dasharray:none;stroke-opacity:1" d="m 264.533,440.929 c -2.515,-1.274 -5.439,-1.498 -8.119,-0.62 l -40.429,13.239 c -5.586,1.824 -8.631,7.835 -6.797,13.418 l 42.117,128.585 c 1.82,5.576 7.823,8.618 13.41,6.794 l 40.428,-13.24 c 5.572,-1.831 8.616,-7.841 6.797,-13.416 L 269.823,447.103 c -0.876,-2.68 -2.775,-4.899 -5.29,-6.174 z" id="path3144" /><path style="fill:#ccd1d9;stroke:black;stroke-width:0.05;stroke-dasharray:none;stroke-opacity:1" d="m 159.593,42.1297 c -0.624,-1.8876 -1.771,-3.5697 -3.297,-4.849 L 94.7086,-14.1247 c -2.8235,-2.3379 -6.6445,-3.0688 -10.127,-1.935 -3.4825,1.1339 -6.1382,3.9976 -7.0143,7.55383 L 58.3051,69.3644 c -0.4771,1.9411 -0.4035,3.969 0.2201,5.8574 L 179.043,443.259 c 1.834,5.583 7.838,8.625 13.424,6.801 l 80.853,-26.473 c 2.68,-0.878 4.906,-2.789 6.18,-5.304 1.274,-2.515 1.495,-5.433 0.617,-8.113 z" id="path3146" /><path style="opacity:0.2;fill:white;stroke:black;stroke-width:0.05;stroke-dasharray:none;stroke-opacity:1;enable-background:new" d="m 84.5811,-16.0588 c -3.4829,1.1347 -6.1381,3.9976 -7.0143,7.55382 L 58.3046,69.3653 c -0.477,1.9411 -0.4035,3.969 0.2202,5.8574 L 179.043,443.259 c 1.834,5.583 7.838,8.625 13.424,6.801 l 80.853,-26.473 c 2.68,-0.878 4.906,-2.789 6.18,-5.304 1.274,-2.515 1.495,-5.433 0.617,-8.113 L 159.593,42.1297 c -0.624,-1.8876 -1.771,-3.5697 -3.297,-4.849 L 94.7086,-14.1247 c -2.8244,-2.3384 -6.6454,-3.0692 -10.1275,-1.9341 z M 87.8858,-5.94966 149.481,45.4415 270.008,413.475 189.151,439.954 68.6307,71.9243 Z" id="path3148" /><path style="fill:#aab2bc;stroke:black;stroke-width:0.05;stroke-dasharray:none;stroke-opacity:1" d="m 232.891,436.827 c -5.587,1.824 -11.589,-1.217 -13.424,-6.801 L 134.682,171.101 c -1.824,-5.587 1.218,-11.59 6.794,-13.411 5.583,-1.834 11.593,1.211 13.417,6.798 l 84.794,258.921 c 1.822,5.577 -1.219,11.58 -6.796,13.418 z" id="path3150" /><g id="g3156" transform="matrix(0.45057,-0.889395,0.889395,0.45057,-147.479,435.116)" style="fill:#f65a00;fill-opacity:1;stroke:black;stroke-width:0.0501498;stroke-dasharray:none;stroke-opacity:1">
	<path style="fill:#f65a00;fill-opacity:1;stroke:black;stroke-width:0.0501498;stroke-dasharray:none;stroke-opacity:1" d="m 77.249,389.478 h 90.506 l 10.672,-10.672 c 2,-2 3.125,-4.703 3.125,-7.531 0,-1.078 -0.164,-2.125 -0.469,-3.125 H 98.584 Z" id="path3152" />
	<path style="fill:#f65a00;fill-opacity:1;stroke:black;stroke-width:0.0501498;stroke-dasharray:none;stroke-opacity:1" d="M 143.842,413.4 H 53.328 l -16.117,16.125 c -1.484,1.484 -2.43,3.297 -2.859,5.203 h 88.155 z" id="path3154" />
</g></g><g id="g3142" transform="translate(-1143.08,403.793)" style="stroke:black;stroke-width:0.05;stroke-dasharray:none;stroke-opacity:1"><g transform="translate(1925.77,581.637)" id="g278" style="clip-rule:evenodd;fill-rule:evenodd;stroke:black;stroke-width:0.05;stroke-linejoin:round;stroke-miterlimit:1.41421;stroke-dasharray:none;stroke-opacity:1">
            <path d="m 0,-279.559 c -121.238,0 -231.39,14.576 -312.939,38.329 l -0.999,199.5084 C -232.389,-17.9676 -121.238,0 0,0 138.76,0 288.216,-31.4587 371.66,-61.5527 L 346.431,-230.37 C 262.987,-260.465 138.76,-279.559 0,-279.559" style="fill:#a52b00;fill-rule:nonzero;stroke:black;stroke-width:0.05;stroke-dasharray:none;stroke-opacity:1" id="path276" sodipodi:nodetypes="cccsccc" />
        </g><g transform="translate(2397.17,520.259)" id="g282" style="clip-rule:evenodd;fill-rule:evenodd;stroke:black;stroke-width:0.05;stroke-linejoin:round;stroke-miterlimit:1.41421;stroke-dasharray:none;stroke-opacity:1">
            <path d="m 0,-53.32 -14.211,-29.441 c 0.073,-1.118 0.131,-2.237 0.131,-3.36 0,-33.375 -34.706,-64.135 -93.097,-88.762 V 2.643 c 27.245,-11.492 49.348,-24.317 65.156,-38.125 -4.652,18.707 -20.564,56.553 -33.25,83.168 -20.85,38.066 -28.4,71.203 -27.432,72.844 0.617,1.033 7.73,-9.94 18.219,-27.721 C -60.074,58.028 -13.82,-8.373 -4.575,-25.287 5.897,-44.461 0,-53.32 0,-53.32" style="fill:#a52b00;fill-rule:nonzero;stroke:black;stroke-width:0.05;stroke-dasharray:none;stroke-opacity:1" id="path280" />
        </g><g transform="translate(1477.49,536.038)" id="g286" style="clip-rule:evenodd;fill-rule:evenodd;stroke:black;stroke-width:0.05;stroke-linejoin:round;stroke-miterlimit:1.41421;stroke-dasharray:none;stroke-opacity:1">
            <path d="m 0,-99.954 c 0,6.428 1.293,12.76 3.788,18.969 l -8.511,15.15 c 0,0 -6.818,8.846 5.188,27.508 10.59,16.455 63.635,80.867 91.632,114.598 12.026,17.293 20.179,27.945 20.893,26.916 1.124,-1.633 -7.476,-34.1 -31.359,-71.141 -11.144,-19.895 -24.454,-46.252 -32.442,-65.721 22.303,14.116 51.483,26.92 86.152,37.94 V -204.17 C 51.797,-177.622 0,-140.737 0,-99.954" style="fill:#a52b00;fill-rule:nonzero;stroke:black;stroke-width:0.05;stroke-dasharray:none;stroke-opacity:1" id="path284" />
        </g><g transform="matrix(-65.8097,-752.207,-752.207,65.8097,1950.13,740.929)" id="g290" style="clip-rule:evenodd;fill-rule:evenodd;stroke:black;stroke-width:6.622e-05;stroke-linejoin:round;stroke-miterlimit:1.41421;stroke-dasharray:none;stroke-opacity:1">
            <path d="M 0.991,-0.034 0.933,0.008 c 0,0.006 0,0.012 0,0.018 L 0.99,0.069 C 0.996,0.073 0.999,0.08 0.998,0.087 0.997,0.094 0.992,0.1 0.986,0.103 L 0.92,0.133 C 0.919,0.139 0.918,0.145 0.916,0.15 L 0.964,0.203 C 0.968,0.208 0.97,0.216 0.968,0.222 0.965,0.229 0.96,0.234 0.953,0.236 L 0.882,0.254 C 0.88,0.259 0.877,0.264 0.875,0.27 L 0.91,0.33 c 0.004,0.006 0.004,0.014 0,0.02 C 0.907,0.356 0.9,0.36 0.893,0.361 L 0.82,0.365 C 0.817,0.369 0.813,0.374 0.81,0.379 L 0.832,0.445 C 0.835,0.452 0.833,0.459 0.828,0.465 0.824,0.47 0.816,0.473 0.809,0.472 L 0.737,0.462 C 0.733,0.466 0.729,0.47 0.724,0.474 l 0.009,0.07 C 0.734,0.551 0.731,0.558 0.725,0.562 0.719,0.566 0.711,0.568 0.704,0.565 L 0.636,0.542 C 0.631,0.546 0.626,0.549 0.621,0.552 L 0.615,0.621 c 0,0.008 -0.005,0.014 -0.011,0.017 -0.007,0.003 -0.015,0.003 -0.021,0 L 0.521,0.602 C 0.52,0.603 0.519,0.603 0.518,0.603 L 0.406,0.729 c 0,0 -0.012,0.018 -0.047,-0.004 C 0.329,0.705 0.206,0.599 0.141,0.543 0.109,0.52 0.089,0.504 0.09,0.502 0.093,0.499 0.149,0.509 0.217,0.554 0.278,0.588 0.371,0.631 0.38,0.619 c 0,0 0.016,-0.015 0.026,-0.044 0,0 0,0 0,0 10e-4,0.001 10e-4,0.001 0,0 0,0 -0.315,-0.551 -0.101,-1.106 C 0.311,-0.593 0.275,-0.627 0.275,-0.627 0.266,-0.639 0.178,-0.598 0.12,-0.566 0.055,-0.523 0.002,-0.513 0,-0.516 -0.001,-0.518 0.018,-0.533 0.049,-0.555 0.11,-0.608 0.227,-0.707 0.256,-0.726 0.289,-0.748 0.301,-0.73 0.301,-0.73 l 0.101,0.115 c 0.004,0.001 0.008,0.002 0.013,0.002 L 0.47,-0.658 c 0.005,-0.005 0.013,-0.006 0.02,-0.004 0.007,0.002 0.012,0.007 0.014,0.014 l 0.018,0.068 c 0.005,0.002 0.011,0.004 0.016,0.006 l 0.064,-0.034 c 0.006,-0.004 0.014,-0.004 0.021,0 0.006,0.003 0.01,0.009 0.01,0.016 l 0.004,0.07 c 0.005,0.003 0.01,0.007 0.015,0.01 l 0.069,-0.022 c 0.007,-0.002 0.015,-0.001 0.02,0.003 0.006,0.005 0.009,0.012 0.008,0.019 l -0.011,0.069 c 0.004,0.004 0.008,0.008 0.013,0.012 l 0.072,-0.008 c 0.007,-0.001 0.014,0.002 0.019,0.007 0.005,0.006 0.006,0.013 0.003,0.02 l -0.024,0.065 c 0.003,0.005 0.007,0.01 0.01,0.015 l 0.072,0.005 c 0.008,0 0.014,0.005 0.017,0.011 0.004,0.006 0.004,0.014 0,0.02 l -0.037,0.06 c 0.002,0.005 0.004,0.01 0.006,0.016 l 0.07,0.018 c 0.007,0.002 0.013,0.007 0.015,0.014 0.002,0.007 0,0.014 -0.005,0.02 L 0.92,-0.116 c 0.001,0.005 0.003,0.011 0.004,0.017 l 0.064,0.031 C 0.995,-0.065 0.999,-0.059 1,-0.052 1.001,-0.045 0.997,-0.038 0.991,-0.034 Z M 0.406,0.575 Z" style="fill:url(#_Linear1);fill-rule:nonzero;stroke:black;stroke-width:6.622e-05;stroke-dasharray:none;stroke-opacity:1" id="path288" />
        </g><g transform="translate(2075.54,421.95)" id="g298" style="clip-rule:evenodd;fill-rule:evenodd;stroke:black;stroke-width:0.05;stroke-linejoin:round;stroke-miterlimit:1.41421;stroke-dasharray:none;stroke-opacity:1">
            
        </g><g transform="matrix(-1.53e-5,-267.211,-267.211,1.53e-5,2137.89,708.847)" id="g302" style="clip-rule:evenodd;fill-rule:evenodd;stroke:black;stroke-width:0.00018712;stroke-linejoin:round;stroke-miterlimit:1.41421;stroke-dasharray:none;stroke-opacity:1">
            
        </g><g transform="translate(2005.82,454.227)" id="g306" style="clip-rule:evenodd;fill-rule:evenodd;stroke:black;stroke-width:0.05;stroke-linejoin:round;stroke-miterlimit:1.41421;stroke-dasharray:none;stroke-opacity:1">
            <path d="m 0,-92.063 c 0,0 43.486,-47.615 86.974,0 0,0 34.17,63.492 0,95.234 0,0 -55.912,44.444 -86.974,0 0,0 -37.275,-34.921 0,-95.234" style="fill-rule:nonzero;stroke:black;stroke-width:0.05;stroke-dasharray:none;stroke-opacity:1" id="path304" />
        </g><g transform="translate(2056.16,379.826)" id="g310" style="clip-rule:evenodd;fill-rule:evenodd;stroke:black;stroke-width:0.05;stroke-linejoin:round;stroke-miterlimit:1.41421;stroke-dasharray:none;stroke-opacity:1">
            <path d="m 0,0.002 c 0,18.541 -10.93,33.572 -24.408,33.572 -13.477,0 -24.406,-15.031 -24.406,-33.572 0,-18.541 10.929,-33.574 24.406,-33.574 C -10.93,-33.572 0,-18.539 0,0.002" style="fill:white;fill-rule:nonzero;stroke:black;stroke-width:0.05;stroke-dasharray:none;stroke-opacity:1" id="path308" />
        </g><g transform="translate(1811.72,447.601)" id="g314" style="clip-rule:evenodd;fill-rule:evenodd;stroke:black;stroke-width:0.05;stroke-linejoin:round;stroke-miterlimit:1.41421;stroke-dasharray:none;stroke-opacity:1">
            <path d="m 0,-98.439 c 0,0 74.596,-33.028 94.956,40.691 0,0 21.327,85.926 -61.259,90.776 0,0 -105.31,-20.283 -33.697,-131.467" style="fill-rule:nonzero;stroke:black;stroke-width:0.05;stroke-dasharray:none;stroke-opacity:1" id="path312" />
        </g><g transform="translate(1849.19,381.045)" id="g318" style="clip-rule:evenodd;fill-rule:evenodd;stroke:black;stroke-width:0.05;stroke-linejoin:round;stroke-miterlimit:1.41421;stroke-dasharray:none;stroke-opacity:1">
            <path d="m 0,0 c 0,19.119 -11.27,34.627 -25.173,34.627 -13.898,0 -25.171,-15.508 -25.171,-34.627 0,-19.124 11.273,-34.627 25.171,-34.627 C -11.27,-34.627 0,-19.124 0,0" style="fill:white;fill-rule:nonzero;stroke:black;stroke-width:0.05;stroke-dasharray:none;stroke-opacity:1" id="path316" />
        </g><g transform="matrix(0.028054,-0.999606,-0.999606,-0.028054,1549.69,241.989)" id="g294" style="clip-rule:evenodd;fill-rule:evenodd;stroke:black;stroke-width:0.05;stroke-linejoin:round;stroke-miterlimit:1.41421;stroke-dasharray:none;stroke-opacity:1">
            <path d="m 0,167.33 c -1.664,-1.42 -2.536,-2.262 -2.536,-2.262 L 140.006,153.391 C 23.733,0 -69.418,122.193 -79.333,135.855 v 31.475 z" style="fill-rule:nonzero;stroke:black;stroke-width:0.05;stroke-dasharray:none;stroke-opacity:1" id="path292" />
        </g><g transform="matrix(238.927,6.70557,-6.70557,238.927,1256.69,281.952)" id="g322" style="clip-rule:evenodd;fill:#f65b00;fill-opacity:1;fill-rule:evenodd;stroke:black;stroke-width:0.00020919;stroke-linejoin:round;stroke-miterlimit:1.41421;stroke-dasharray:none;stroke-opacity:1">
            <path d="m 0.367,0.129 c -0.731,-0.57 -0.144,-0.84 -0.144,-0.84 0.036,0.32 0.249,0.547 0.249,0.547 0.049,-0.384 0.053,-0.606 0.053,-0.606 0.678,0.514 0.064,0.931 0.064,0.931 0.038,0.104 0.183,0.211 0.317,0.29 L 1,0.77 C 0.376,0.403 0.367,0.129 0.367,0.129 Z" style="fill:#f65b00;fill-opacity:1;fill-rule:nonzero;stroke:black;stroke-width:0.00020919;stroke-dasharray:none;stroke-opacity:1" id="path320" />
        </g></g><g id="g3162" transform="matrix(0.45057,-0.889395,0.889395,0.45057,-205.473,451.7)" style="stroke:black;stroke-width:0.05;stroke-dasharray:none;stroke-opacity:1">
	<path style="fill:#f74c00;fill-opacity:1;stroke:black;stroke-width:0.05;stroke-dasharray:none;stroke-opacity:1" d="M 253.848,393.9 118.084,258.138 c -4.164,-4.164 -10.914,-4.164 -15.078,0 l -22.632,22.624 c -4.164,4.172 -4.164,10.922 0,15.078 l 135.763,135.764 c 2,2 4.711,3.125 7.539,3.125 2.836,0 5.547,-1.125 7.547,-3.125 l 22.625,-22.625 c 4.163,-4.157 4.163,-10.922 0,-15.079 z" id="path3158" />
	
</g></g></svg>
